<?xml version="1.0" encoding="utf-8"?>
<!-- Generator: Adobe Illustrator 19.2.1, SVG Export Plug-In . SVG Version: 6.00 Build 0)  -->
<!DOCTYPE svg PUBLIC "-//W3C//DTD SVG 1.1//EN" "http://www.w3.org/Graphics/SVG/1.1/DTD/svg11.dtd" [
	<!ENTITY st0 "fill:#FFFFFF;">
	<!ENTITY st1 "fill:none;">
	<!ENTITY st2 "fill:#808080;">
	<!ENTITY st3 "fill:#ED1C24;">
	<!ENTITY st4 "fill:#3FA9F5;">
	<!ENTITY st5 "fill:#1A1A1A;">
	<!ENTITY st6 "fill:#F88509;">
	<!ENTITY st7 "fill:#666666;">
	<!ENTITY st8 "fill:#F14950;">
	<!ENTITY st9 "fill:#EF8488;">
	<!ENTITY st10 "fill:#66A2E4;">
	<!ENTITY st11 "fill:#F9CF67;">
	<!ENTITY st12 "fill:#B6D474;">
	<!ENTITY st13 "fill:#232F3E;">
	<!ENTITY st14 "fill:#40618B;">
	<!ENTITY st15 "fill:#304968;">
	<!ENTITY st16 "opacity:0.66;">
	<!ENTITY st17 "fill:#6681A2;">
	<!ENTITY st18 "fill:none;stroke:#333333;stroke-width:1.0757;stroke-miterlimit:10;">
	<!ENTITY st19 "clip-path:url(#SVGID_4_);">
	<!ENTITY st20 "fill:none;stroke:#FFFFFF;stroke-width:2.44;stroke-miterlimit:10;">
	<!ENTITY st21 "fill:none;stroke:#FFFFFF;stroke-width:3.3517;stroke-linecap:round;stroke-miterlimit:10;">
	<!ENTITY st22 "fill:#E70029;">
	<!ENTITY st23 "fill:#003366;">
	<!ENTITY st24 "clip-path:url(#SVGID_14_);">
	<!ENTITY st25 "fill:#C69C6D;">
	<!ENTITY st26 "fill:#A67C52;">
	<!ENTITY st27 "clip-path:url(#SVGID_16_);">
	<!ENTITY st28 "clip-path:url(#SVGID_18_);">
	<!ENTITY st29 "clip-path:url(#SVGID_20_);">
	<!ENTITY st30 "font-family:'AxisStd-Light-83pv-RKSJ-H';">
	<!ENTITY st31 "font-size:16.6994px;">
	<!ENTITY st32 "letter-spacing:-1.1;">
	<!ENTITY st33 "clip-path:url(#SVGID_22_);">
	<!ENTITY st34 "font-family:'NewRodinPro-DB-83pv-RKSJ-H';">
	<!ENTITY st35 "font-size:28.2238px;">
	<!ENTITY st36 "letter-spacing:5;">
]>
<svg version="1.1" id="レイヤー_1" xmlns="http://www.w3.org/2000/svg" xmlns:xlink="http://www.w3.org/1999/xlink" x="0px"
	 y="0px" viewBox="0 0 233.4 30.4" style="enable-background:new 0 0 233.4 30.4;" xml:space="preserve">
<g>
	<g>
		<path style="&st0;" d="M37.9,26.9c-0.9,0-1.8,0-2.8,0c-0.2-0.7-0.3-1.4-0.4-1.8c-1.1,0.6-2.2,1.5-3.4,1.9
			c-2.1,0.6-4.1-0.6-4.8-2.6c-0.7-2.2,0.1-4.5,2.3-5.2c1.8-0.6,3.7-0.8,5.8-1.2c0.2-1,0.1-2-1.2-2.6c-1.7-0.7-3.2,0-4.3,1.8
			c-0.3,0-0.7-0.1-1-0.1c-0.4-0.1-0.7-0.2-1.2-0.3c0.2-0.6,0.3-1.1,0.6-1.6c1.5-2.4,7.1-3.1,9-1c0.7,0.8,1,2.1,1.1,3.3
			c0.2,2.2,0,4.4,0.1,6.5c0,0.7,0.2,1.5,0.4,2.2C37.9,26.5,37.9,26.7,37.9,26.9z M34.6,19.9c-1.4,0.3-2.6,0.4-3.8,0.9
			c-1.3,0.5-1.8,1.8-1.3,2.9c0.6,1.3,1.6,1.5,2.8,1.1C34,24.3,34.7,22.8,34.6,19.9z"/>
	</g>
	<g>
		<path style="&st0;" d="M78.2,26.9c-0.9,0-1.8,0-2.8,0c-0.2-0.7-0.3-1.4-0.4-1.8c-1.1,0.6-2.2,1.5-3.4,1.9
			c-2.1,0.6-4.1-0.6-4.8-2.6c-0.7-2.2,0.2-4.4,2.3-5.3c0.9-0.4,1.8-0.6,2.8-0.7c0.9-0.1,1.9-0.1,3-0.2C75,17,75,16,73.7,15.4
			c-1.7-0.7-3.2,0-4.3,1.8c-0.3,0-0.7-0.1-1-0.1c-0.4-0.1-0.7-0.2-1.2-0.3c0.2-0.6,0.3-1.1,0.6-1.6c1.5-2.4,7.1-3.1,9-1
			c0.7,0.8,1,2.1,1.1,3.3c0.2,2.2,0,4.4,0.1,6.5c0,0.7,0.2,1.5,0.4,2.2C78.2,26.5,78.2,26.7,78.2,26.9z M74.9,19.9
			c-1.4,0.3-2.6,0.4-3.8,0.9c-1.3,0.5-1.8,1.8-1.3,2.9c0.6,1.3,1.6,1.5,2.8,1.1C74.3,24.3,75,22.8,74.9,19.9z"/>
	</g>
	<g>
		<path style="&st0;" d="M67.1,26.9c-1,0-2,0-3.2,0c0-2.8,0-5.4,0-8c0-2.2-0.6-3-2-3.1c-1.6-0.1-2.8,1.1-2.9,3c-0.1,2.6,0,5.2,0,7.9
			c-1.1,0-2,0-3.1,0c0-2.6,0-5.2,0-7.8c0-2.3-0.5-3.1-1.9-3.2c-1.5-0.1-2.8,1.1-3,3c-0.2,1.8-0.1,3.6-0.1,5.4c0,0.9,0,1.7,0,2.7
			c-1,0-1.8,0-2.8,0c0-4.4,0-8.9,0-13.4c0.8,0,1.6,0,2.5,0c0.1,0.7,0.1,1.4,0.2,2.3c1.3-1.9,2.9-3.1,5.1-2.5c1.1,0.3,2,1.4,3.1,2.3
			c0,0,0.4-0.4,0.7-0.8c1.1-1.3,2.5-1.8,4.2-1.5c1.6,0.3,2.6,1.4,3,3c0,0.2,0.2,0.4,0.3,0.5C67.1,20.1,67.1,23.5,67.1,26.9z"/>
	</g>
	<g>
		<path style="&st0;" d="M48.1,26.9c-0.9,0-1.8,0-3,0c0-2.2,0-4.4,0-6.5c0-0.8,0.2-1.7-0.1-2.4c-0.3-0.8-1-1.9-1.7-2
			c-0.7-0.1-1.8,0.6-2.3,1.3c-0.5,0.8-0.6,1.9-0.7,2.9c-0.1,2.2,0,4.4,0,6.7c-1,0-1.8,0-2.8,0c0-4.4,0-8.9,0-13.4c0.8,0,1.6,0,2.4,0
			c0,0.8,0.1,1.5,0.2,2.5c0.4-0.5,0.6-0.8,0.8-1.1c0.9-1.4,2.2-2,3.9-1.7c1.6,0.3,2.6,1.3,3,2.8c0.1,0.3,0.2,0.5,0.3,0.7
			C48.1,20.1,48.1,23.5,48.1,26.9z"/>
	</g>
	<g>
		<path style="&st0;" d="M146.6,28.4c-1.9,0-3.9,0-6.3,0c0-4.6,0-9,0-13.4c0-1.7,0.4-3.5-0.2-5c-0.7-1.7-2.1-3.9-3.6-4.1
			c-1.5-0.3-4,1.2-4.9,2.6c-1.1,1.6-1.4,4-1.5,6c-0.2,4.5-0.1,9.1-0.1,13.8c-2.1,0-3.9,0-6,0c0-9.1,0-18.2,0-27.5c1.7,0,3.3,0,5.2,0
			c0.1,1.6,0.2,3,0.3,5.1c0.8-1,1.2-1.6,1.7-2.2c2-2.9,4.8-4.1,8.3-3.4c3.3,0.6,5.5,2.6,6.4,5.8c0.1,0.5,0.4,1,0.7,1.5
			C146.6,14.5,146.6,21.4,146.6,28.4z"/>
	</g>
	<g>
		<path style="&st0;" d="M124.7,16.3c-0.2,0.7-0.6,1.4-0.7,2.1c-1.5,6.5-6.6,10.7-12.8,10.6c-6.2-0.2-11.1-4.7-11.8-11.5
			c-0.3-2.7-0.2-5.7,0.5-8.3c1.6-6.2,6.4-9.4,12.7-9.1c5.5,0.2,10,4.2,11.4,10c0.2,1,0.5,1.9,0.8,2.9
			C124.7,14,124.7,15.2,124.7,16.3z M118.1,14.4c-0.4-2-0.4-4.2-1.4-5.8c-1-1.6-3.1-3.3-4.8-3.4c-1.7,0-4.2,1.6-5,3.1
			c-2.1,3.9-2.2,8.3,0,12.2c0.8,1.5,3.3,3.1,5,3c1.7,0,3.8-1.8,4.8-3.3C117.8,18.7,117.7,16.4,118.1,14.4z"/>
	</g>
	<g>
		<path style="&st0;" d="M76.8,22.3c3.4-1.1,5.6-1.7,8.2,0.7c1.5,1.3,5.1,0.6,7.7,0.4c0.6,0,1.5-1.7,1.5-2.6c0-0.7-0.9-1.9-1.7-2.2
			c-1.9-0.7-4-1-6-1.4c-6-1.3-8.8-4.4-8.3-9.3C78.8,2.9,82.7,0,88.6,0c5.7,0,8.5,1.7,10.2,6.4c-2.4,0.5-4.5,1.8-6.9-0.8
			c-1.1-1.1-4.2-0.5-6.4-0.4c-0.6,0-1.6,1.4-1.4,2c0.2,0.9,1.1,2.1,1.9,2.4c2.5,0.9,5.1,1.3,7.6,1.9c4.5,1.1,6.6,3.3,6.8,7.3
			c0.3,4.5-1.5,7.3-5.7,8.9c-4.6,1.8-9.3,1.8-13.5-0.9C79.5,25.9,78.4,24,76.8,22.3z"/>
	</g>
	<g>
		<path style="&st0;" d="M194,26.8c-0.9,0-1.8,0-2.9,0c-0.2-0.7-0.3-1.4-0.4-1.8c-1.1,0.6-2.2,1.5-3.5,1.9c-2.1,0.6-4.2-0.6-4.8-2.6
			c-0.7-2.2,0.2-4.4,2.3-5.3c0.9-0.4,1.9-0.6,2.8-0.7c1-0.1,1.9-0.1,3-0.2c0.2-1.3,0.1-2.3-1.2-2.9c-1.7-0.7-3.3,0-4.4,1.8
			c-0.3,0-0.7-0.1-1.1-0.1c-0.4-0.1-0.7-0.2-1.2-0.3c0.2-0.6,0.3-1.1,0.6-1.6c1.5-2.4,7.2-3.1,9.1-1c0.7,0.8,1.1,2.1,1.2,3.3
			c0.2,2.2,0,4.4,0.1,6.5c0,0.7,0.2,1.5,0.4,2.2C194,26.3,194,26.6,194,26.8z M190.6,19.7c-1.4,0.3-2.7,0.4-3.9,0.9
			c-1.3,0.5-1.8,1.8-1.3,2.9c0.6,1.3,1.7,1.5,2.9,1.1C190,24.2,190.8,22.7,190.6,19.7z"/>
	</g>
	<g>
		<path style="&st0;" d="M168.6,26.9c-0.9,0-1.8,0-3,0c0-1.9,0-3.6,0-5.4c0-1,0-2,0-2.9c0-1.4-0.1-2.7-1.8-3
			c-1.3-0.2-2.6,0.9-2.8,2.6c-0.2,1.9-0.2,3.8-0.2,5.7c0,1,0,1.9,0,3c-1,0-1.9,0-2.9,0c0-6.1,0-12.2,0-18.3c1,0,2,0,2.9,0
			c0,2.1,0,4.3,0,6.2c1.1-0.6,2.2-1.5,3.4-1.8c2.1-0.5,3.2,0.5,4.5,3.2C168.6,19.7,168.6,23.3,168.6,26.9z"/>
	</g>
	<g>
		<path style="&st0;" d="M184.4,26.8c-0.9,0-1.8,0-3,0c0-2.2,0-4.4,0-6.5c0-0.8,0.2-1.7-0.1-2.4c-0.3-0.8-1-1.9-1.7-2
			c-0.7-0.1-1.9,0.6-2.3,1.3c-0.5,0.8-0.7,1.9-0.7,2.9c-0.1,2.2,0,4.4,0,6.7c-1,0-1.9,0-2.8,0c0-4.4,0-8.9,0-13.4c0.8,0,1.6,0,2.5,0
			c0,0.8,0.1,1.5,0.2,2.5c0.4-0.5,0.6-0.8,0.8-1.1c1-1.4,2.3-2,3.9-1.7c1.6,0.3,2.6,1.3,3,2.8c0.1,0.3,0.2,0.5,0.3,0.7
			C184.4,20,184.4,23.4,184.4,26.8z"/>
	</g>
	<g>
		<path style="&st0;" d="M147.6,23.9c1.6-0.5,2.6-0.8,3.9,0.3c0.7,0.6,2.4,0.3,3.7,0.2c0.3,0,0.7-0.8,0.7-1.3c0-0.4-0.4-0.9-0.8-1.1
			c-0.9-0.3-1.9-0.5-2.8-0.7c-2.9-0.6-4.2-2.1-3.9-4.5c0.3-2.4,2.1-3.8,4.9-3.8c2.7,0,4,0.8,4.9,3.1c-1.2,0.3-2.1,0.9-3.3-0.4
			c-0.5-0.5-2-0.2-3.1-0.2c-0.3,0-0.7,0.7-0.7,1c0.1,0.5,0.5,1,0.9,1.2c1.2,0.4,2.4,0.6,3.6,0.9c2.1,0.5,3.1,1.6,3.2,3.5
			c0.1,2.2-0.7,3.6-2.7,4.4c-2.2,0.9-4.4,0.9-6.4-0.4C148.9,25.7,148.3,24.8,147.6,23.9z"/>
	</g>
	<g>
		<path style="&st0;" d="M172.6,8.6c0,1,0,1.9,0,3c-1,0-1.9,0-2.9,0c0-1.1,0-2,0-3C170.6,8.6,171.6,8.6,172.6,8.6z"/>
		<path style="&st0;" d="M172.6,13.5c0,4.5,0,8.8,0,13.3c-0.9,0-1.8,0-2.8,0c0-4.4,0-8.8,0-13.3C170.7,13.5,171.6,13.5,172.6,13.5z"
			/>
	</g>
	<g>
		<path style="&st0;" d="M195.6,26.8c0-4.5,0-9,0-13.4c1-0.1,1.9-0.1,2.9-0.2c0,4.7,0,9.1,0,13.6C197.4,26.8,196.5,26.8,195.6,26.8z
			"/>
		<path style="&st0;" d="M198.5,8.4c0,1,0,1.9,0,3.1c-1-0.1-2-0.1-2.9-0.2c0-1,0-2,0-2.9C196.5,8.4,197.5,8.4,198.5,8.4z"/>
	</g>
	<text transform="matrix(0.87 0 0 1 201.717 26.3537)"><tspan x="0" y="0" style="&st0; &st30; &st31; &st32;">.c</tspan><tspan x="10.9" y="0" style="&st0; &st30; &st31; &st32;">o</tspan><tspan x="20.1" y="0" style="&st0; &st30; &st31; &st32;">m</tspan></text>
	<g>
		<circle style="&st6;" cx="11.8" cy="16.9" r="11.8"/>
		<g>
			<defs>
				<circle id="SVGID_21_" cx="11.8" cy="16.9" r="11.8"/>
			</defs>
			<clipPath id="SVGID_2_">
				<use xlink:href="#SVGID_21_"  style="overflow:visible;"/>
			</clipPath>
			<g style="clip-path:url(#SVGID_2_);">
				<text transform="matrix(1 0 0 1 -1.635742e-02 26.1354)" style="&st0; &st34; &st35; &st36;">A</text>
			</g>
		</g>
	</g>
</g>
</svg>
