<?xml version="1.0" encoding="utf-8"?>
<!-- Generator: Adobe Illustrator 19.2.1, SVG Export Plug-In . SVG Version: 6.00 Build 0)  -->
<!DOCTYPE svg PUBLIC "-//W3C//DTD SVG 1.1//EN" "http://www.w3.org/Graphics/SVG/1.1/DTD/svg11.dtd" [
	<!ENTITY st0 "fill:#FFFFFF;">
	<!ENTITY st1 "fill:none;">
	<!ENTITY st2 "fill:#808080;">
	<!ENTITY st3 "fill:#ED1C24;">
	<!ENTITY st4 "fill:#3FA9F5;">
	<!ENTITY st5 "fill:#1A1A1A;">
	<!ENTITY st6 "fill:#F88509;">
	<!ENTITY st7 "fill:#666666;">
	<!ENTITY st8 "fill:#F14950;">
	<!ENTITY st9 "fill:#EF8488;">
	<!ENTITY st10 "fill:#66A2E4;">
	<!ENTITY st11 "fill:#F9CF67;">
	<!ENTITY st12 "fill:#B6D474;">
	<!ENTITY st13 "fill:#232F3E;">
	<!ENTITY st14 "fill:#40618B;">
	<!ENTITY st15 "fill:#304968;">
	<!ENTITY st16 "opacity:0.66;">
	<!ENTITY st17 "fill:#6681A2;">
	<!ENTITY st18 "fill:none;stroke:#333333;stroke-width:1.0757;stroke-miterlimit:10;">
	<!ENTITY st19 "clip-path:url(#SVGID_4_);">
	<!ENTITY st20 "fill:none;stroke:#FFFFFF;stroke-width:2.44;stroke-miterlimit:10;">
	<!ENTITY st21 "fill:none;stroke:#FFFFFF;stroke-width:3.3517;stroke-linecap:round;stroke-miterlimit:10;">
	<!ENTITY st22 "fill:#E70029;">
	<!ENTITY st23 "fill:#003366;">
	<!ENTITY st24 "clip-path:url(#SVGID_14_);">
	<!ENTITY st25 "fill:#C69C6D;">
	<!ENTITY st26 "fill:#A67C52;">
	<!ENTITY st27 "clip-path:url(#SVGID_16_);">
	<!ENTITY st28 "clip-path:url(#SVGID_18_);">
	<!ENTITY st29 "clip-path:url(#SVGID_20_);">
	<!ENTITY st30 "clip-path:url(#SVGID_22_);">
]>
<svg version="1.1" id="レイヤー_1" xmlns="http://www.w3.org/2000/svg" xmlns:xlink="http://www.w3.org/1999/xlink" x="0px"
	 y="0px" viewBox="0 0 130 101.7" style="enable-background:new 0 0 130 101.7;" xml:space="preserve">
<g>
	<g>
		<g>
			<circle style="&st3;" cx="100.6" cy="72.3" r="29.4"/>
		</g>
	</g>
	<g>
		<rect y="28.5" style="&st22;" width="69.4" height="3.6"/>
		<rect y="32" style="&st0;" width="69.4" height="3.6"/>
		<rect y="24.9" style="&st0;" width="69.4" height="3.6"/>
		<rect y="35.6" style="&st22;" width="69.4" height="3.6"/>
		<rect y="42.7" style="&st22;" width="69.4" height="3.6"/>
		<rect y="39.2" style="&st0;" width="69.4" height="3.6"/>
		<rect y="17.8" style="&st0;" width="69.4" height="3.6"/>
		<rect y="3.6" style="&st0;" width="69.4" height="3.6"/>
		<rect style="&st22;" width="69.4" height="3.6"/>
		<rect y="7.1" style="&st22;" width="69.4" height="3.6"/>
		<rect y="10.7" style="&st0;" width="69.4" height="3.6"/>
		<rect y="21.4" style="&st22;" width="69.4" height="3.6"/>
		<rect y="14.2" style="&st22;" width="69.4" height="3.6"/>
		<rect style="&st23;" width="31.1" height="24.9"/>
		<polygon style="&st0;" points="2.6,6.1 2.9,7.1 3.9,7.1 3.1,7.7 3.4,8.7 2.6,8.1 1.7,8.7 2,7.7 1.2,7.1 2.2,7.1 		"/>
		<polygon style="&st0;" points="7.8,6.1 8.1,7.1 9.1,7.1 8.3,7.7 8.6,8.7 7.8,8.1 7,8.7 7.3,7.7 6.4,7.1 7.5,7.1 		"/>
		<polygon style="&st0;" points="13,6.1 13.3,7.1 14.4,7.1 13.5,7.7 13.9,8.7 13,8.1 12.2,8.7 12.5,7.7 11.7,7.1 12.7,7.1 		"/>
		<polygon style="&st0;" points="18.2,6.1 18.6,7.1 19.6,7.1 18.8,7.7 19.1,8.7 18.2,8.1 17.4,8.7 17.7,7.7 16.9,7.1 17.9,7.1 		"/>
		<polygon style="&st0;" points="23.5,6.1 23.8,7.1 24.8,7.1 24,7.7 24.3,8.7 23.5,8.1 22.6,8.7 22.9,7.7 22.1,7.1 23.1,7.1 		"/>
		<polygon style="&st0;" points="28.7,6.1 29,7.1 30,7.1 29.2,7.7 29.5,8.7 28.7,8.1 27.9,8.7 28.2,7.7 27.3,7.1 28.4,7.1 		"/>
		<polygon style="&st0;" points="28.7,1 29,2 30,2 29.2,2.6 29.5,3.6 28.7,3 27.9,3.6 28.2,2.6 27.3,2 28.4,2 		"/>
		<polygon style="&st0;" points="2.6,1 2.9,2 3.9,2 3.1,2.6 3.4,3.6 2.6,3 1.7,3.6 2,2.6 1.2,2 2.2,2 		"/>
		<polygon style="&st0;" points="7.8,1 8.1,2 9.1,2 8.3,2.6 8.6,3.6 7.8,3 7,3.6 7.3,2.6 6.4,2 7.5,2 		"/>
		<polygon style="&st0;" points="13,1 13.3,2 14.4,2 13.5,2.6 13.9,3.6 13,3 12.2,3.6 12.5,2.6 11.7,2 12.7,2 		"/>
		<polygon style="&st0;" points="18.2,1 18.6,2 19.6,2 18.8,2.6 19.1,3.6 18.2,3 17.4,3.6 17.7,2.6 16.9,2 17.9,2 		"/>
		<polygon style="&st0;" points="23.5,1 23.8,2 24.8,2 24,2.6 24.3,3.6 23.5,3 22.6,3.6 22.9,2.6 22.1,2 23.1,2 		"/>
		<polygon style="&st0;" points="5.2,3.6 5.5,4.6 6.5,4.6 5.7,5.2 6,6.2 5.2,5.6 4.3,6.2 4.7,5.2 3.8,4.6 4.9,4.6 		"/>
		<polygon style="&st0;" points="10.4,3.6 10.7,4.6 11.8,4.6 10.9,5.2 11.2,6.2 10.4,5.6 9.6,6.2 9.9,5.2 9,4.6 10.1,4.6 		"/>
		<polygon style="&st0;" points="15.6,3.6 15.9,4.6 17,4.6 16.1,5.2 16.5,6.2 15.6,5.6 14.8,6.2 15.1,5.2 14.3,4.6 15.3,4.6 		"/>
		<polygon style="&st0;" points="20.9,3.6 21.2,4.6 22.2,4.6 21.4,5.2 21.7,6.2 20.9,5.6 20,6.2 20.3,5.2 19.5,4.6 20.5,4.6 		"/>
		<polygon style="&st0;" points="26.1,3.6 26.4,4.6 27.4,4.6 26.6,5.2 26.9,6.2 26.1,5.6 25.2,6.2 25.6,5.2 24.7,4.6 25.8,4.6 		"/>
		<polygon style="&st0;" points="5.2,8.6 5.5,9.6 6.5,9.6 5.7,10.2 6,11.2 5.2,10.5 4.3,11.2 4.7,10.2 3.8,9.6 4.9,9.6 		"/>
		<polygon style="&st0;" points="10.4,8.6 10.7,9.6 11.8,9.6 10.9,10.2 11.2,11.2 10.4,10.5 9.6,11.2 9.9,10.2 9,9.6 10.1,9.6 		"/>
		<polygon style="&st0;" points="15.6,8.6 15.9,9.6 17,9.6 16.1,10.2 16.5,11.2 15.6,10.5 14.8,11.2 15.1,10.2 14.3,9.6 15.3,9.6 		
			"/>
		<polygon style="&st0;" points="20.9,8.6 21.2,9.6 22.2,9.6 21.4,10.2 21.7,11.2 20.9,10.5 20,11.2 20.3,10.2 19.5,9.6 20.5,9.6 		
			"/>
		<polygon style="&st0;" points="26.1,8.6 26.4,9.6 27.4,9.6 26.6,10.2 26.9,11.2 26.1,10.5 25.2,11.2 25.6,10.2 24.7,9.6 25.8,9.6 
					"/>
		<polygon style="&st0;" points="5.2,13.5 5.5,14.5 6.5,14.5 5.7,15.1 6,16.1 5.2,15.5 4.3,16.1 4.7,15.1 3.8,14.5 4.9,14.5 		"/>
		<polygon style="&st0;" points="10.4,13.5 10.7,14.5 11.8,14.5 10.9,15.1 11.2,16.1 10.4,15.5 9.6,16.1 9.9,15.1 9,14.5 10.1,14.5 
					"/>
		<polygon style="&st0;" points="15.6,13.5 15.9,14.5 17,14.5 16.1,15.1 16.5,16.1 15.6,15.5 14.8,16.1 15.1,15.1 14.3,14.5 
			15.3,14.5 		"/>
		<polygon style="&st0;" points="20.9,13.5 21.2,14.5 22.2,14.5 21.4,15.1 21.7,16.1 20.9,15.5 20,16.1 20.3,15.1 19.5,14.5 
			20.5,14.5 		"/>
		<polygon style="&st0;" points="26.1,13.5 26.4,14.5 27.4,14.5 26.6,15.1 26.9,16.1 26.1,15.5 25.2,16.1 25.6,15.1 24.7,14.5 
			25.8,14.5 		"/>
		<polygon style="&st0;" points="5.2,18.5 5.5,19.5 6.5,19.5 5.7,20.1 6,21.1 5.2,20.5 4.3,21.1 4.7,20.1 3.8,19.5 4.9,19.5 		"/>
		<polygon style="&st0;" points="10.4,18.5 10.7,19.5 11.8,19.5 10.9,20.1 11.2,21.1 10.4,20.5 9.6,21.1 9.9,20.1 9,19.5 10.1,19.5 
					"/>
		<polygon style="&st0;" points="15.6,18.5 15.9,19.5 17,19.5 16.1,20.1 16.5,21.1 15.6,20.5 14.8,21.1 15.1,20.1 14.3,19.5 
			15.3,19.5 		"/>
		<polygon style="&st0;" points="20.9,18.5 21.2,19.5 22.2,19.5 21.4,20.1 21.7,21.1 20.9,20.5 20,21.1 20.3,20.1 19.5,19.5 
			20.5,19.5 		"/>
		<polygon style="&st0;" points="26.1,18.5 26.4,19.5 27.4,19.5 26.6,20.1 26.9,21.1 26.1,20.5 25.2,21.1 25.6,20.1 24.7,19.5 
			25.8,19.5 		"/>
		<polygon style="&st0;" points="2.6,11.1 2.9,12.1 3.9,12.1 3.1,12.7 3.4,13.7 2.6,13.1 1.7,13.7 2,12.7 1.2,12.1 2.2,12.1 		"/>
		<polygon style="&st0;" points="7.8,11.1 8.1,12.1 9.1,12.1 8.3,12.7 8.6,13.7 7.8,13.1 7,13.7 7.3,12.7 6.4,12.1 7.5,12.1 		"/>
		<polygon style="&st0;" points="13,11.1 13.3,12.1 14.4,12.1 13.5,12.7 13.9,13.7 13,13.1 12.2,13.7 12.5,12.7 11.7,12.1 
			12.7,12.1 		"/>
		<polygon style="&st0;" points="18.2,11.1 18.6,12.1 19.6,12.1 18.8,12.7 19.1,13.7 18.2,13.1 17.4,13.7 17.7,12.7 16.9,12.1 
			17.9,12.1 		"/>
		<polygon style="&st0;" points="23.5,11.1 23.8,12.1 24.8,12.1 24,12.7 24.3,13.7 23.5,13.1 22.6,13.7 22.9,12.7 22.1,12.1 
			23.1,12.1 		"/>
		<polygon style="&st0;" points="28.7,11.1 29,12.1 30,12.1 29.2,12.7 29.5,13.7 28.7,13.1 27.9,13.7 28.2,12.7 27.3,12.1 
			28.4,12.1 		"/>
		<polygon style="&st0;" points="2.6,16.2 2.9,17.2 3.9,17.2 3.1,17.8 3.4,18.8 2.6,18.2 1.7,18.8 2,17.8 1.2,17.2 2.2,17.2 		"/>
		<polygon style="&st0;" points="7.8,16.2 8.1,17.2 9.1,17.2 8.3,17.8 8.6,18.8 7.8,18.2 7,18.8 7.3,17.8 6.4,17.2 7.5,17.2 		"/>
		<polygon style="&st0;" points="13,16.2 13.3,17.2 14.4,17.2 13.5,17.8 13.9,18.8 13,18.2 12.2,18.8 12.5,17.8 11.7,17.2 
			12.7,17.2 		"/>
		<polygon style="&st0;" points="18.2,16.2 18.6,17.2 19.6,17.2 18.8,17.8 19.1,18.8 18.2,18.2 17.4,18.8 17.7,17.8 16.9,17.2 
			17.9,17.2 		"/>
		<polygon style="&st0;" points="23.5,16.2 23.8,17.2 24.8,17.2 24,17.8 24.3,18.8 23.5,18.2 22.6,18.8 22.9,17.8 22.1,17.2 
			23.1,17.2 		"/>
		<polygon style="&st0;" points="28.7,16.2 29,17.2 30,17.2 29.2,17.8 29.5,18.8 28.7,18.2 27.9,18.8 28.2,17.8 27.3,17.2 
			28.4,17.2 		"/>
		<polygon style="&st0;" points="2.6,21.2 2.9,22.2 3.9,22.2 3.1,22.8 3.4,23.8 2.6,23.2 1.7,23.8 2,22.8 1.2,22.2 2.2,22.2 		"/>
		<polygon style="&st0;" points="7.8,21.2 8.1,22.2 9.1,22.2 8.3,22.8 8.6,23.8 7.8,23.2 7,23.8 7.3,22.8 6.4,22.2 7.5,22.2 		"/>
		<polygon style="&st0;" points="13,21.2 13.3,22.2 14.4,22.2 13.5,22.8 13.9,23.8 13,23.2 12.2,23.8 12.5,22.8 11.7,22.2 
			12.7,22.2 		"/>
		<polygon style="&st0;" points="18.2,21.2 18.6,22.2 19.6,22.2 18.8,22.8 19.1,23.8 18.2,23.2 17.4,23.8 17.7,22.8 16.9,22.2 
			17.9,22.2 		"/>
		<polygon style="&st0;" points="23.5,21.2 23.8,22.2 24.8,22.2 24,22.8 24.3,23.8 23.5,23.2 22.6,23.8 22.9,22.8 22.1,22.2 
			23.1,22.2 		"/>
		<polygon style="&st0;" points="28.7,21.2 29,22.2 30,22.2 29.2,22.8 29.5,23.8 28.7,23.2 27.9,23.8 28.2,22.8 27.3,22.2 
			28.4,22.2 		"/>
	</g>
</g>
</svg>
