<?xml version="1.0" encoding="utf-8"?>
<!-- Generator: Adobe Illustrator 19.2.1, SVG Export Plug-In . SVG Version: 6.00 Build 0)  -->
<!DOCTYPE svg PUBLIC "-//W3C//DTD SVG 1.1//EN" "http://www.w3.org/Graphics/SVG/1.1/DTD/svg11.dtd" [
	<!ENTITY st0 "fill:#FFFFFF;">
	<!ENTITY st1 "fill:none;">
	<!ENTITY st2 "fill:#808080;">
	<!ENTITY st3 "fill:#ED1C24;">
	<!ENTITY st4 "fill:#3FA9F5;">
	<!ENTITY st5 "fill:#1A1A1A;">
	<!ENTITY st6 "fill:#F88509;">
	<!ENTITY st7 "fill:#666666;">
	<!ENTITY st8 "fill:#F14950;">
	<!ENTITY st9 "fill:#EF8488;">
	<!ENTITY st10 "fill:#66A2E4;">
	<!ENTITY st11 "fill:#F9CF67;">
	<!ENTITY st12 "fill:#B6D474;">
	<!ENTITY st13 "fill:#232F3E;">
	<!ENTITY st14 "fill:#40618B;">
	<!ENTITY st15 "fill:#304968;">
	<!ENTITY st16 "opacity:0.66;">
	<!ENTITY st17 "fill:#6681A2;">
	<!ENTITY st18 "fill:none;stroke:#333333;stroke-width:1.0757;stroke-miterlimit:10;">
	<!ENTITY st19 "clip-path:url(#SVGID_4_);">
	<!ENTITY st20 "fill:none;stroke:#FFFFFF;stroke-width:2.44;stroke-miterlimit:10;">
	<!ENTITY st21 "fill:none;stroke:#FFFFFF;stroke-width:3.3517;stroke-linecap:round;stroke-miterlimit:10;">
	<!ENTITY st22 "fill:#E70029;">
	<!ENTITY st23 "fill:#003366;">
	<!ENTITY st24 "clip-path:url(#SVGID_14_);">
	<!ENTITY st25 "fill:#C69C6D;">
	<!ENTITY st26 "fill:#A67C52;">
	<!ENTITY st27 "clip-path:url(#SVGID_16_);">
	<!ENTITY st28 "clip-path:url(#SVGID_18_);">
	<!ENTITY st29 "clip-path:url(#SVGID_20_);">
	<!ENTITY st30 "clip-path:url(#SVGID_22_);">
]>
<svg version="1.1" id="レイヤー_1" xmlns="http://www.w3.org/2000/svg" xmlns:xlink="http://www.w3.org/1999/xlink" x="0px"
	 y="0px" viewBox="0 0 384 404.5" style="enable-background:new 0 0 384 404.5;" xml:space="preserve">
<g>
	<path style="&st0;" d="M30.9,404.5c0,0,35.1-22.9,42.1-45.8c7.1-22.9-1-67.4-1-67.4l85.8,9.2c0,0-23.2,54.3-48.7,72.1
		S30.9,404.5,30.9,404.5z"/>
	<ellipse transform="matrix(0.2389 -0.971 0.971 0.2389 -40.3071 332.5753)" style="&st0;" cx="192" cy="192" rx="192" ry="192"/>
	<g>
		<path d="M284,78.9c6.8-0.5,8.8-4,8.8-6.5v-0.2c0-2.4-1.5-4.2-4.2-4.9c-1.4,2.6-3.2,5.6-5.3,7.8c0.3,0.7,0.6,1.4,1,1.9l-1.1,0.5
			c-0.3-0.4-0.6-0.9-0.9-1.5c-0.9,0.9-1.8,1.6-2.7,2c-0.7,0.4-1.3,0.5-1.8,0.5c-1.7,0-2.8-1.5-2.8-3.4c0-0.2,0-0.5,0.1-0.8
			c0.4-2.8,2.7-5.8,6.2-7.4c0-1.2,0.1-2.4,0.2-3.7h-5.6l0-1.1h5.7c0.1-0.9,0.2-1.8,0.3-2.6h1.2c-0.1,0.8-0.2,1.7-0.3,2.6l10,0l0,1.1
			h-10.1c-0.1,1.1-0.2,2.1-0.2,3.2c1.1-0.4,2.2-0.6,3.4-0.6c0.2,0,0.4,0,0.5,0c0.5,0,1.1,0,1.6,0.1c0.2-0.5,0.4-0.9,0.6-1.4l1.1,0.5
			c-0.2,0.4-0.3,0.7-0.5,1.1c3.3,0.8,5,3.1,5,6.1c0,2.6-1.8,6.8-9.2,7.5L284,78.9z M276.1,74.8c0,0.2,0,0.4,0,0.5
			c0,1.3,0.7,2.2,1.8,2.2c0.4,0,0.8-0.1,1.2-0.3c0.7-0.4,1.8-1.1,2.9-2.3c-0.6-1.9-0.8-4.2-0.8-6.6C278.6,69.6,276.5,72,276.1,74.8z
			 M286.2,67.1c-0.1,0-0.3,0-0.4,0c-1.2,0-2.3,0.3-3.5,0.7v0.4c0,2,0.2,4,0.6,5.7c1.4-1.7,3-3.9,4.5-6.8
			C287,67.1,286.6,67.1,286.2,67.1z"/>
		<path d="M287.4,104.6c-2.1,0-3-1.2-3-3.6c0-0.1,0-0.2,0-0.2c0-0.4,0.1-1,0.1-1.6c0-0.3,0-0.6,0-0.8c0-0.4,0-0.7-0.1-1
			c-0.2-1.1-0.7-1.7-1.4-1.7c-0.4,0-0.8,0.2-1.3,0.5c-1.6,1.1-3.8,3.6-4.7,5.2c-0.5,0.9-0.8,1.5-1.3,2.8l-1.2-0.4
			c1.9-5,5.9-13.3,7.8-18l1.3,0.4c-1.5,3.4-3.1,6.4-5.9,12.6c1.3-1.7,2.5-2.8,3.4-3.5c0.7-0.4,1.4-0.7,2-0.7c1.2,0,2.2,0.8,2.4,2.5
			c0.1,0.4,0.1,0.8,0.1,1.2c0,0.7,0,1.4-0.1,2.2c0,0.1,0,0.2,0,0.3c0,1.5,0.2,2.5,1.8,2.5h0c4,0,5.4-5.1,6.1-8.6l1.1,0.8
			C294.2,98,292.8,104.5,287.4,104.6L287.4,104.6z"/>
		<path d="M291.8,129.6c-1.9-1.6-3.8-2.9-5.9-3.8v0.5c0,2-1.5,4.2-4.8,4.2c-3.3,0-5.1-1.8-5.1-3.5c0-1.7,1.7-3.4,5.2-3.4
			c1.2,0,2.4,0.2,3.5,0.6c0-1.1,0-2.6,0-4.1h-8.1v-1.1l8.1,0l-0.1-3.6H276v-1.1h8.7c0-1.3,0-2.4,0-3.1l1.2,0v3.1l7.1,0v1.1h-7.1
			c0,1.2,0,2.4,0,3.6h6.2v1.1h-6.2c0,1.5,0,3,0,4.5c2.4,0.9,4.7,2.4,6.6,3.8L291.8,129.6L291.8,129.6z M281.5,124.8
			c-0.2,0-0.4,0-0.6,0c-2.5,0-3.7,1.1-3.7,2.3s1.3,2.3,3.8,2.3c2.4,0,3.8-1.3,3.8-3.5v-0.4C283.8,125.1,282.7,124.9,281.5,124.8z"/>
		<path d="M293.2,136.6c1.1,1,2.4,2.3,3.1,3.2l-0.6,0.4c-0.7-0.9-2-2.3-3.1-3.2L293.2,136.6z"/>
	</g>
	<g>
		<path style="&st6;" d="M85.5,181.7v-49.5h-29v-3.5h29V89.5h3.9v39.2h23v3.5h-23v48.2c8.1-3.1,16-6.1,22.4-8.7l0.6,3.3
			c-6.8,2.8-14.7,5.9-23,9v60.4c0,5.5-1.5,9.2-7.7,10.1c-3.9,0.6-13.3,0.6-21.3,0.2v-3.7c6.6,0.4,15.7,0.4,18.8,0.2
			c5.2-0.4,6.4-2.8,6.4-7v-58.7c-10.8,4.1-21.3,7.9-28.8,10.7l-1.5-3.5C62.7,190.2,74.1,186.2,85.5,181.7z M153.2,226.9
			c-11.2,10.5-28.6,21.4-43.5,28.4c-1.2-0.9-2.5-1.7-3.9-2.4c15.5-7,32.7-17.1,43.7-28L153.2,226.9z M222.4,148.2v72.9H118.8v-72.9
			H222.4z M122.6,171.2h95.9v-19.5h-95.9V171.2z M122.6,194.3h95.9v-19.5h-95.9V194.3z M122.6,217.7h95.9v-19.7h-95.9V217.7z
			 M215.4,95.4v34.4h-89.7V95.4H215.4z M129.6,126.1h82V98.9h-82V126.1z M187.6,224.8c18.4,9.6,33.3,19,45.4,28l-4.3,1.7
			c-11.4-8.7-26.5-18-44.5-27.6L187.6,224.8z"/>
	</g>
	<g>
		<path d="M146.3,305.3c-6.2,1.5-9.6-4.1-9.7-9.4l-0.3-13.6c0-0.4-0.3-0.7-0.8-0.7l-1.1,0c-0.9,0-0.9-1.2,0-1.3l1,0
			c1.9,0,3.1,1,3.1,2.8l0.3,12.6c0.1,4,2.1,9.3,7.2,8.4C146.9,303.9,147.1,305.1,146.3,305.3z"/>
		<path d="M175.6,303.7c-0.1,0-0.2,0.1-0.2,0.1c-0.6,5-2.6,8.7-6,12.7c-0.9,1-2.5-0.4-1.6-1.3c3.2-3.3,5.2-7.2,5.6-11.3
			c0-0.1,0-0.1-0.1-0.1l-4.9,0.1c-0.9,0-0.9-1.3,0-1.4l5-0.1c0.1,0,0.2-0.1,0.2-0.1c0.1-1.9,0-3.2,0-4.2c-0.2-1.4,2.2-1.5,2.1-0.1
			c0,1,0,2.4-0.1,4.2c0,0.1,0.1,0.1,0.1,0.1l1.5,0c2.8-0.1,3.6-1.6,3.6-1.7c0.5-0.9,2-0.3,1.3,0.6c-0.1,0.1-1.2,2.4-4.9,2.4
			L175.6,303.7z M193.8,306.2c-0.1,0.3-0.4,0.5-0.6,0.6c-0.1,0-0.2,0-0.3,0l-4.4,0.1c-2.5,0.1-3.1,1.3-3.1,3.3l0.1,6.1
			c0,0.1,0.1,0.1,0.1,0.2c2.1,0.6,3.9,1.4,5.6,2.3c0,0,0.3,0.2,0.5,0.3c1.2,0.7-0.1,2.5-1.1,1.8c-0.3-0.2-0.6-0.4-0.6-0.4
			c-1.4-1.2-2.9-1.9-4.5-2.5c0,0-0.1,0-0.1,0.1c0,0.1,0,0.2,0,0.3c0,0.4-0.1,0.8-0.3,1.4c-0.2,0.5-0.5,0.9-0.8,1.2
			c-0.8,0.7-1.6,1-2.5,1.1c-0.8,0.1-1.8,0.2-2.6,0.1c-0.8-0.1-1.6-0.3-2.4-0.6c-0.9-0.5-1.7-1.2-1.8-2.1c-0.1-1,0.4-1.9,1.2-2.4
			c1.2-0.9,2.9-1.1,4.3-1.1c0.9-0.1,1.8,0,2.7,0.1c0.1,0,0.1-0.1,0.1-0.1l-0.1-5.6c-0.1-3.4,1.9-4.4,5-4.4l1.2,0
			c0.3,0,0.4-0.3,0.2-0.5c-2.2-1.7-3.2-2.7-4-3.7c-0.4-0.6,0.5-1.4,1-0.8c1.7,1.9,4.1,3.2,6.4,4.2
			C193.7,305.2,194,305.7,193.8,306.2z M183.5,317.5c0-0.1-0.1-0.2-0.1-0.2c-0.8-0.1-1.7-0.2-2.6-0.2c-1.2,0.1-2.6,0.3-3.5,0.9
			c-0.4,0.3-0.6,0.7-0.6,1.2c0,0.3,0.4,0.7,1,0.9c1.1,0.4,2.6,0.5,3.9,0.2c0.8-0.2,1.7-0.5,1.9-1.3
			C183.5,318.8,183.5,318.4,183.5,317.5z"/>
		<path d="M232.6,326.5c-0.2-2.2-0.3-4.7-1.7-6.6c-1.5-2.1-4.1-2.7-6.5-1.6c-2.8,1.3-4.1,4.3-5.1,7.2c-0.4,1.3-0.8,2.5-1.2,3.8
			c-0.3,0.9-0.8,1.9-1.8,2.3c-2.8,1-5.3-3.6-6-5.5c-1-2.8-0.9-5.7-1-8.5c0-0.8-0.1-1.9-1.2-1.8c-0.9,0-0.9-1.2,0-1.3
			c1.1,0,2.3,0.1,3,1c0.8,1.1,0.5,2.7,0.6,4c0.1,3,0.2,6.2,2.2,8.7c0.4,0.6,1.3,1.6,2.1,1.5c0.6-0.1,1-1.2,1.1-1.7
			c0.8-2.3,1.7-4.7,2.9-6.8c1.6-2.9,4.8-5.2,8.3-4.8c4.5,0.6,6.8,6.5,6.8,9.9C235.4,327.9,232.8,328,232.6,326.5z"/>
	</g>
	<g>
		<defs>
			
				<ellipse id="SVGID_19_" transform="matrix(0.2389 -0.971 0.971 0.2389 -40.3071 332.5753)" cx="192" cy="192" rx="192" ry="192"/>
		</defs>
		<clipPath id="SVGID_2_">
			<use xlink:href="#SVGID_19_"  style="overflow:visible;"/>
		</clipPath>
		<g style="clip-path:url(#SVGID_2_);">
			<g>
				
					<rect x="348.7" y="268.1" transform="matrix(0.7388 -0.674 0.674 0.7388 -101.0659 319.8328)" style="&st0;" width="26.8" height="44.4"/>
				<path style="&st25;" d="M336.4,283.6c7.1-6.5,14.2-12.9,21.3-19.4c10.8,11.8,21.5,23.6,32.3,35.4c-7.1,6.5-14.2,12.9-21.3,19.4
					C357.9,307.1,347.2,295.4,336.4,283.6z M358.9,267.5c-0.1,0.1-0.2,0.1-0.2,0.2c-6.2,5.7-12.5,11.4-18.7,17.1
					c-0.3,0.3-0.3,0.4,0,0.8c8.7,9.5,17.3,19,25.9,28.4c0.4,0.4,0.8,0.9,1.2,1.3c0.2,0.2,0.4,0.3,0.5,0c0.1-0.1,0.2-0.2,0.3-0.2
					c6.1-5.6,12.3-11.2,18.4-16.8c0.1-0.1,0.2-0.2,0.4-0.3C377.4,287.8,368.1,277.6,358.9,267.5z"/>
			</g>
			<path style="&st25;" d="M332,293.6c-7.1-7.8-14.3-15.7-21.4-23.5c11.8-10.8,23.6-21.5,35.4-32.3c7.1,7.8,14.3,15.7,21.4,23.5
				C355.5,272.1,343.7,282.8,332,293.6z M313.9,269c0.1,0.1,0.1,0.2,0.2,0.3c6.3,6.9,12.6,13.8,18.8,20.6c0.3,0.3,0.5,0.3,0.8,0
				c9.5-8.7,19-17.3,28.4-25.9c0.4-0.4,0.9-0.8,1.3-1.2c0.2-0.2,0.2-0.4,0-0.6c-0.1-0.1-0.2-0.2-0.3-0.3
				c-6.2-6.8-12.4-13.6-18.5-20.3c-0.1-0.1-0.2-0.3-0.4-0.4C334.2,250.5,324.1,259.7,313.9,269z"/>
			<path style="&st0;" d="M313.9,269c10.2-9.3,20.3-18.5,30.4-27.8c0.1,0.1,0.2,0.3,0.4,0.4c6.2,6.8,12.4,13.6,18.5,20.3
				c0.1,0.1,0.2,0.2,0.3,0.3c0.2,0.2,0.2,0.4,0,0.6c-0.4,0.4-0.9,0.8-1.3,1.2c-9.5,8.6-19,17.3-28.4,25.9c-0.3,0.3-0.5,0.3-0.8,0
				c-6.3-6.9-12.6-13.8-18.8-20.6C314.1,269.2,314,269.1,313.9,269z M333.5,267.7c-0.9-1-2.6-1.1-3.6-0.1c-1,0.9-1.1,2.6-0.2,3.5
				c0.9,1,2.6,1.1,3.6,0.2C334.3,270.4,334.4,268.7,333.5,267.7z M345.1,260.4c1.1-1,1.1-2.5,0.2-3.6c-0.9-1-2.5-1.1-3.5-0.2
				c-1.1,1-1.2,2.6-0.3,3.6C342.5,261.3,344.1,261.4,345.1,260.4z M347.4,269.1c-0.2,0-0.3-0.1-0.3-0.1c-1.5,0-3,0-4.5,0
				c-0.4,0-0.5,0.2-0.5,0.5c-0.1,1.4-0.3,2.9-0.4,4.3c0,0.1,0,0.2,0,0.4C343.6,272.5,345.5,270.9,347.4,269.1z"/>
			<path style="&st25;" d="M333.5,267.7c0.9,1,0.8,2.7-0.2,3.6c-1,0.9-2.7,0.8-3.6-0.2c-0.9-1-0.8-2.6,0.2-3.5
				C330.9,266.6,332.5,266.7,333.5,267.7z"/>
			<path style="&st25;" d="M345.1,260.4c-1,0.9-2.7,0.9-3.6-0.2c-0.9-1-0.8-2.6,0.3-3.6c1-0.9,2.6-0.8,3.5,0.2
				C346.3,257.9,346.2,259.5,345.1,260.4z"/>
			<path style="&st25;" d="M347.4,269.1c-1.9,1.8-3.8,3.4-5.7,5.2c0-0.2,0-0.3,0-0.4c0.1-1.4,0.3-2.9,0.4-4.3c0-0.3,0.1-0.5,0.5-0.5
				c1.5,0,3,0,4.5,0C347.1,269,347.2,269.1,347.4,269.1z"/>
		</g>
		<g style="clip-path:url(#SVGID_2_);">
			<path style="&st26;" d="M279.1,214.6l-2.6,3.9v2.9h-0.9v-2.9l-2.6-3.9h1.1l2,3.1l1.9-3.1H279.1z"/>
			<path style="&st26;" d="M282.6,216.3c0.7,0,1.2,0.2,1.6,0.7s0.6,1.1,0.6,1.9c0,0.8-0.2,1.4-0.6,1.9s-0.9,0.7-1.6,0.7
				c-0.7,0-1.2-0.2-1.6-0.7s-0.6-1.1-0.6-1.9c0-0.8,0.2-1.4,0.6-1.9S281.9,216.3,282.6,216.3z M282.6,220.8c0.4,0,0.7-0.2,1-0.5
				s0.4-0.8,0.4-1.4c0-0.6-0.1-1.1-0.4-1.4s-0.6-0.5-1-0.5c-0.4,0-0.7,0.2-1,0.5s-0.4,0.8-0.4,1.4c0,0.6,0.1,1.1,0.4,1.4
				S282.2,220.8,282.6,220.8z"/>
			<path style="&st26;" d="M289.7,220.7c-0.4,0.5-0.9,0.7-1.4,0.7c-1.1,0-1.6-0.6-1.6-1.8v-3.2h0.8v3.2c0,0.4,0.1,0.7,0.2,0.9
				c0.1,0.2,0.4,0.3,0.7,0.3c0.5,0,0.9-0.3,1.3-0.8v-3.5h0.8v4.9h-0.8V220.7z"/>
			<path style="&st26;" d="M298.7,221.4c-0.7,0-1.2-0.2-1.6-0.7s-0.6-1.1-0.6-1.9c0-0.8,0.2-1.4,0.6-1.9s0.9-0.7,1.6-0.7
				c0.5,0,1,0.1,1.3,0.4c0.3,0.3,0.6,0.7,0.6,1.2h-0.9c0-0.3-0.1-0.5-0.3-0.7c-0.2-0.2-0.4-0.2-0.7-0.2c-0.4,0-0.7,0.2-1,0.5
				s-0.4,0.8-0.4,1.4c0,0.6,0.1,1.1,0.4,1.4s0.6,0.5,1,0.5c0.3,0,0.5-0.1,0.7-0.2c0.2-0.2,0.3-0.4,0.3-0.7h0.9
				c-0.1,0.5-0.3,0.9-0.6,1.2S299.2,221.4,298.7,221.4z"/>
			<path style="&st26;" d="M305.3,220.8c-0.4,0.4-1,0.6-1.7,0.6c-0.5,0-0.9-0.1-1.2-0.4c-0.3-0.3-0.5-0.6-0.5-1c0-1.1,1-1.7,2.9-1.7
				h0.4c0-0.3,0-0.6-0.1-0.8c0-0.2-0.1-0.3-0.3-0.4c-0.2-0.1-0.4-0.2-0.8-0.2c-0.8,0-1.1,0.3-1.2,0.8h-0.8c0.1-1,0.7-1.5,2-1.5
				c0.6,0,1.1,0.1,1.4,0.4c0.3,0.2,0.5,0.7,0.5,1.5v3.2h-0.8V220.8z M305.3,220V219h-0.6c-1.2,0-1.8,0.3-1.8,1
				c0,0.2,0.1,0.4,0.3,0.6s0.4,0.2,0.7,0.2c0.3,0,0.5-0.1,0.8-0.2C304.9,220.4,305.1,220.3,305.3,220z"/>
			<path style="&st26;" d="M309.2,217.1c0.4-0.5,0.9-0.7,1.4-0.7c1.1,0,1.6,0.6,1.6,1.8v3.2h-0.8v-3.2c0-0.4-0.1-0.7-0.2-0.9
				c-0.1-0.2-0.4-0.3-0.7-0.3c-0.4,0-0.9,0.3-1.3,0.8v3.5h-0.8v-4.9h0.8V217.1z"/>
			<path style="&st26;" d="M315.2,217.1c0.4-0.5,0.9-0.7,1.4-0.7c1.1,0,1.6,0.6,1.6,1.8v3.2h-0.8v-3.2c0-0.4-0.1-0.7-0.2-0.9
				c-0.1-0.2-0.4-0.3-0.7-0.3c-0.4,0-0.9,0.3-1.3,0.8v3.5h-0.8v-4.9h0.8V217.1z"/>
			<path style="&st26;" d="M322.3,216.3c0.7,0,1.2,0.2,1.6,0.7s0.6,1.1,0.6,1.9c0,0.8-0.2,1.4-0.6,1.9s-0.9,0.7-1.6,0.7
				c-0.7,0-1.2-0.2-1.6-0.7s-0.6-1.1-0.6-1.9c0-0.8,0.2-1.4,0.6-1.9S321.7,216.3,322.3,216.3z M322.3,220.8c0.4,0,0.7-0.2,1-0.5
				s0.4-0.8,0.4-1.4c0-0.6-0.1-1.1-0.4-1.4s-0.6-0.5-1-0.5c-0.4,0-0.7,0.2-1,0.5s-0.4,0.8-0.4,1.4c0,0.6,0.1,1.1,0.4,1.4
				S321.9,220.8,322.3,220.8z"/>
			<path style="&st26;" d="M328.3,221.3c-0.2,0-0.4,0.1-0.6,0.1c-0.3,0-0.6-0.1-0.8-0.2c-0.2-0.1-0.3-0.3-0.3-0.5
				c0-0.2-0.1-0.5-0.1-0.8v-2.8H326v-0.7h0.6v-1.2h0.8v1.2h0.8v0.7h-0.8v2.8c0,0.3,0,0.5,0.1,0.6s0.2,0.1,0.3,0.1c0.1,0,0.3,0,0.4,0
				V221.3z"/>
			<path style="&st26;" d="M335.1,221.3h-0.8v-6.8h0.8V221.3z"/>
			<path style="&st26;" d="M339.2,216.3c0.7,0,1.2,0.2,1.6,0.7s0.6,1.1,0.6,1.9c0,0.8-0.2,1.4-0.6,1.9s-0.9,0.7-1.6,0.7
				c-0.7,0-1.2-0.2-1.6-0.7s-0.6-1.1-0.6-1.9c0-0.8,0.2-1.4,0.6-1.9S338.6,216.3,339.2,216.3z M339.2,220.8c0.4,0,0.7-0.2,1-0.5
				s0.4-0.8,0.4-1.4c0-0.6-0.1-1.1-0.4-1.4s-0.6-0.5-1-0.5c-0.4,0-0.7,0.2-1,0.5s-0.4,0.8-0.4,1.4c0,0.6,0.1,1.1,0.4,1.4
				S338.8,220.8,339.2,220.8z"/>
			<path style="&st26;" d="M345,221.4c-1.3,0-2-0.5-2-1.6h0.8c0,0.6,0.4,0.9,1.2,0.9c0.3,0,0.6-0.1,0.8-0.2c0.2-0.1,0.3-0.3,0.3-0.6
				c0-0.2-0.1-0.4-0.3-0.5s-0.5-0.2-1.1-0.4c-0.6-0.1-1-0.3-1.2-0.5c-0.3-0.2-0.4-0.5-0.4-0.9c0-0.4,0.2-0.7,0.5-1s0.7-0.4,1.3-0.4
				c1.2,0,1.9,0.5,1.9,1.4H346c0-0.5-0.4-0.7-1-0.7c-0.3,0-0.5,0.1-0.7,0.2c-0.2,0.1-0.3,0.3-0.3,0.5c0,0.2,0.1,0.3,0.2,0.4
				c0.1,0.1,0.5,0.2,1.1,0.3s1,0.3,1.3,0.5s0.4,0.5,0.4,1c0,0.4-0.2,0.8-0.5,1.1C346.1,221.3,345.6,221.4,345,221.4z"/>
			<path style="&st26;" d="M350.9,221.4c-0.7,0-1.3-0.2-1.7-0.7c-0.4-0.4-0.6-1.1-0.6-1.9c0-0.8,0.2-1.4,0.6-1.9
				c0.4-0.5,0.9-0.7,1.6-0.7c0.7,0,1.2,0.2,1.6,0.7s0.6,1.1,0.6,1.9v0.2h-3.6c0,0.6,0.2,1,0.5,1.3c0.3,0.3,0.6,0.4,1,0.4
				c0.3,0,0.6-0.1,0.8-0.2c0.2-0.2,0.4-0.4,0.4-0.7h0.9c-0.1,0.5-0.3,0.9-0.7,1.2C351.9,221.3,351.4,221.4,350.9,221.4z
				 M352.1,218.4c-0.1-0.5-0.2-0.8-0.5-1.1s-0.5-0.4-0.9-0.4c-0.3,0-0.6,0.1-0.9,0.3c-0.2,0.2-0.4,0.6-0.5,1.1H352.1z"/>
			<path style="&st26;" d="M355.5,221.3h-0.9v-0.9h0.9V221.3z"/>
		</g>
	</g>
</g>
</svg>
